<?xml version="1.0" encoding="utf-8"?>
<!-- Generator: Adobe Illustrator 16.2.0, SVG Export Plug-In . SVG Version: 6.00 Build 0)  -->
<!DOCTYPE svg PUBLIC "-//W3C//DTD SVG 1.1//EN" "http://www.w3.org/Graphics/SVG/1.1/DTD/svg11.dtd">
<svg version="1.1" id="Layer_1" xmlns="http://www.w3.org/2000/svg" xmlns:xlink="http://www.w3.org/1999/xlink" x="0px" y="0px"
	 width="530.973px" height="551.986px" viewBox="0 0 530.973 551.986" enable-background="new 0 0 530.973 551.986"
	 xml:space="preserve">
<g>
	<path fill-rule="evenodd" clip-rule="evenodd" fill="#191717" d="M266.368,17C119.277,17,0,136.251,0,283.368
		C0,401.056,76.322,500.902,182.16,536.125c13.311,2.464,18.199-5.78,18.199-12.814c0-6.351-0.246-27.336-0.361-49.593
		c-74.104,16.114-89.74-31.429-89.74-31.429c-12.118-30.787-29.576-38.975-29.576-38.975c-24.17-16.533,1.822-16.192,1.822-16.192
		c26.746,1.878,40.832,27.452,40.832,27.452c23.756,40.719,62.313,28.946,77.515,22.141c2.39-17.213,9.291-28.969,16.911-35.62
		C158.597,394.363,96.4,371.519,96.4,269.456c0-29.081,10.407-52.841,27.448-71.498c-2.765-6.711-11.884-33.801,2.581-70.493
		c0,0,22.369-7.155,73.268,27.311c21.249-5.907,44.037-8.866,66.672-8.969c22.637,0.103,45.441,3.062,66.729,8.969
		c50.843-34.466,73.178-27.311,73.178-27.311c14.499,36.692,5.38,63.782,2.614,70.493c17.08,18.657,27.413,42.417,27.413,71.498
		c0,102.31-62.313,124.833-121.628,131.428c9.554,8.267,18.065,24.476,18.065,49.327c0,35.64-0.307,64.324-0.307,73.1
		c0,7.09,4.795,15.395,18.296,12.78c105.78-35.263,182.008-135.073,182.008-252.723C532.737,136.251,413.476,17,266.368,17z"/>
	<path fill="#191717" d="M100.888,399.445c-0.585,1.327-2.671,1.724-4.566,0.814c-1.934-0.87-3.016-2.676-2.391-4.002
		c0.573-1.361,2.658-1.74,4.588-0.831C100.454,396.295,101.556,398.119,100.888,399.445L100.888,399.445z M97.61,397.015"/>
	<path fill="#191717" d="M111.679,411.481c-1.271,1.176-3.756,0.628-5.44-1.232c-1.744-1.856-2.067-4.342-0.78-5.535
		c1.31-1.176,3.718-0.625,5.462,1.231C112.666,407.823,113.006,410.288,111.679,411.481L111.679,411.481z M109.137,408.753"/>
	<path fill="#191717" d="M122.181,426.82c-1.633,1.137-4.304,0.073-5.953-2.296c-1.633-2.37-1.633-5.212,0.039-6.35
		c1.65-1.138,4.282-0.112,5.953,2.236C123.848,422.818,123.848,425.661,122.181,426.82L122.181,426.82z M122.181,426.82"/>
	<path fill="#191717" d="M136.568,441.642c-1.461,1.61-4.57,1.176-6.845-1.021c-2.331-2.146-2.977-5.195-1.517-6.807
		c1.482-1.611,4.609-1.158,6.9,1.021C137.421,436.982,138.123,440.048,136.568,441.642L136.568,441.642z M136.568,441.642"/>
	<path fill="#191717" d="M156.417,450.25c-0.646,2.084-3.64,3.031-6.655,2.145c-3.015-0.913-4.983-3.356-4.376-5.462
		c0.625-2.103,3.636-3.089,6.672-2.142C155.069,445.7,157.042,448.125,156.417,450.25L156.417,450.25z M156.417,450.25"/>
	<path fill="#191717" d="M178.218,451.842c0.073,2.197-2.486,4.019-5.651,4.058c-3.184,0.074-5.764-1.705-5.798-3.868
		c0-2.218,2.503-4.019,5.686-4.075C175.621,447.896,178.218,449.663,178.218,451.842L178.218,451.842z M178.218,451.842"/>
	<path fill="#191717" d="M198.503,448.392c0.379,2.141-1.822,4.342-4.967,4.928c-3.093,0.568-5.953-0.758-6.349-2.883
		c-0.383-2.195,1.856-4.397,4.945-4.966C195.281,444.924,198.102,446.212,198.503,448.392L198.503,448.392z M198.503,448.392"/>
</g>
</svg>
